# xmcd
#
# Track frame offsets:
# 182
# 10965
# 24632
# 32730
# 47725
# 59800
# 70292
# 83987
# 100915
# 112065
# 124882
# 135615
# 148460
# 162730
# 175005
# 189992
# 203585
# 216442
# 224630
# 239710
#
# Disc length: 3350 seconds
#
#
# Revision: 3
# Processed by: cddbd v1.4PL0 Copyright (c) Steve Scherf et al.
# Submitted via: FreeRIP 2.12 
#
DISCID=440d1414
DTITLE=Richard Clayderman - Grestest Hits 1 - Love
DYEAR=1995
DGENRE=New Age
TTITLE0=Romeo And Juliet
TTITLE1=Love Story
TTITLE2=Love Is Blue
TTITLE3=A Comme Amour
TTITLE4=Plaisir D'amour
TTITLE5=Parlez-moi D'amour
TTITLE6=Souvenirs D'enfance
TTITLE7=Concerto Pour Une Jeune Fille Nommee"Je t'aime"
TTITLE8=Woman In Love
TTITLE9=How Deep Is Your Love
TTITLE10=Only You
TTITLE11=When A Man Loves A Woman
TTITLE12=Amour Pour Amour
TTITLE13=Mariage D'amour
TTITLE14=L'amour Naufrage
TTITLE15=Ecoute O Mon Amour
TTITLE16=Toujours Se Souvenir
TTITLE17=Les Jours Heureux
TTITLE18=Angelica Divina
TTITLE19=Lady Di
EXTD=
EXTT0=
EXTT1=
EXTT2=
EXTT3=
EXTT4=
EXTT5=
EXTT6=
EXTT7=
EXTT8=
EXTT9=
EXTT10=
EXTT11=
EXTT12=
EXTT13=
EXTT14=
EXTT15=
EXTT16=
EXTT17=
EXTT18=
EXTT19=
PLAYORDER=
